<?xml version="1.0" encoding="utf-8"?>
<!-- Generator: Adobe Illustrator 19.0.0, SVG Export Plug-In . SVG Version: 6.00 Build 0)  -->
<svg version="1.1" id="Шар_1" xmlns="http://www.w3.org/2000/svg" xmlns:xlink="http://www.w3.org/1999/xlink" x="0px" y="0px"
	 viewBox="0 0 50.1 55" style="enable-background:new 0 0 50.1 55;" xml:space="preserve">
<style type="text/css">
	.st0{fill:#FFFFFF;}
</style>
<g id="XMLID_196_">
	<path id="Shape_34_" class="st0" d="M41.4,31.5c-0.9,0-1.6,0.3-2.1,0.7l0,0c0-1.9-1.6-3.4-3.6-3.4c-0.9,0-1.7,0.3-2.4,0.8
		c-0.6-1.4-1.9-2.2-3.3-2.2c-0.9,0-1.6,0.3-2.1,0.7v-6.9c0-1.9-1.6-3.4-3.6-3.4s-3.6,1.5-3.6,3.4v12.3c-2.8-2.5-6-4.4-8-2.5
		c-2.8,2.8,3.1,8.1,7.7,16.3C23.7,53,28.2,55,32.8,55c6.7,0,12.1-5.2,12.1-11.7V35C45,33.1,43.4,31.5,41.4,31.5L41.4,31.5z M43.5,38
		v5.2c0,5.4-4.8,10.3-10.7,10.3c-5.4,0-8.5-2.9-11.1-6.9c-5.4-9.1-9.4-13.2-8-14.7c1.6-1.5,5.4,1.8,8.4,4.8V21.1
		c0-1.1,1-2.1,2.1-2.1s2.1,1,2.1,2.1v14.5h1.4v-4.8c0-1.1,1-2.1,2.1-2.1s2.1,1,2.1,2.1v3.4h1.4v-2.1c0-1.1,1-2.1,2.1-2.1
		s2.1,1,2.1,2.1v3.4h1.4V35c0-1.1,1-2.1,2.1-2.1s2.1,1,2.1,2.1L43.5,38L43.5,38z"/>
	<path id="Combined-Shape_2_" class="st0" d="M24.5,4.9h23.1l-4.2-3.8c-0.3-0.2-0.3-0.6,0-0.9c0.3-0.2,0.7-0.2,1,0l5.4,4.9
		c0.3,0.2,0.3,0.6,0,0.9l-5.4,4.9c-0.1,0.1-0.3,0.2-0.5,0.2s-0.4-0.1-0.5-0.2c-0.3-0.2-0.3-0.6,0-0.9l4.2-3.8H23.7h-0.1H2.2L6.1,10
		c0.3,0.2,0.3,0.6,0,0.9c-0.3,0.2-0.7,0.2-0.9,0L0.2,6c-0.3-0.2-0.3-0.6,0-0.9l5-4.9C5.3,0.1,5.5,0,5.7,0S6,0.1,6.2,0.2
		c0.3,0.2,0.3,0.6,0,0.9L2.3,4.9h22.1C24.4,4.9,24.4,4.9,24.5,4.9z"/>
</g>
</svg>
